<?xml version="1.0" standalone="no"?>
<!DOCTYPE svg PUBLIC "-//W3C//DTD SVG 20010904//EN"
 "http://www.w3.org/TR/2001/REC-SVG-20010904/DTD/svg10.dtd">
<svg version="1.0" xmlns="http://www.w3.org/2000/svg"
 width="500.000000pt" height="500.000000pt" viewBox="0 0 500.000000 500.000000"
 preserveAspectRatio="xMidYMid meet">
<metadata>
Created by potrace 1.14, written by Peter Selinger 2001-2017
</metadata>
<g transform="translate(0.000000,500.000000) scale(0.100000,-0.100000)"
fill="#000000" stroke="none">
<path d="M2474 4127 c0 -64 -11 -92 -78 -209 -29 -51 -39 -104 -25 -146 7 -23
8 -20 5 15 -3 47 20 109 55 145 28 29 69 116 69 146 0 33 18 18 29 -26 15 -54
19 -82 20 -126 l1 -39 22 19 c12 10 18 14 15 8 -12 -21 -17 -118 -8 -154 l9
-35 2 35 c2 41 3 50 20 110 14 52 15 137 1 171 -9 23 -10 23 -10 2 -2 -49 -25
-72 -29 -28 -3 41 -41 120 -70 148 l-27 26 -1 -62z"/>
<path d="M2639 3873 c-1 -16 -1 -52 0 -93 1 -16 6 -30 11 -30 6 0 8 11 6 25
-15 83 78 -21 107 -121 8 -27 13 -59 12 -71 -1 -12 2 -20 7 -17 12 8 10 65 -6
116 -18 61 -134 222 -137 191z"/>
<path d="M2290 3810 c-58 -82 -80 -194 -49 -252 13 -26 14 -23 11 46 -3 59 0
81 16 112 l20 39 11 -30 c21 -56 36 -78 71 -104 51 -38 59 -47 75 -83 8 -18
14 -27 15 -20 0 28 -30 83 -72 126 -49 53 -67 95 -65 155 2 49 -4 51 -33 11z"/>
<path d="M2431 3797 c-1 -41 21 -88 74 -153 26 -32 54 -72 62 -89 l14 -30 -6
30 c-7 36 -42 106 -59 120 -26 21 -65 82 -74 115 -10 33 -10 33 -11 7z"/>
<path d="M1285 3782 c-16 -13 -173 -200 -330 -391 -11 -14 -34 -41 -51 -60
-83 -97 -94 -138 -51 -184 12 -14 161 -122 330 -241 224 -157 316 -216 337
-216 23 0 41 16 110 100 44 55 84 100 86 100 6 0 134 -102 194 -154 20 -17 58
-49 84 -71 27 -22 61 -49 74 -61 l25 -20 -164 -3 c-90 -1 -225 -4 -299 -6 -74
-2 -164 -4 -199 -4 -35 -1 -62 -3 -59 -6 16 -17 1502 -25 2032 -11 253 6 337
15 165 17 -52 1 -116 3 -144 4 -27 1 -146 4 -262 5 -119 1 -210 6 -207 11 3 5
65 61 139 124 l134 115 83 5 c154 8 231 45 445 211 45 35 87 70 95 76 7 7 49
42 93 78 158 128 240 203 226 208 -7 2 -49 -23 -94 -56 -336 -242 -500 -329
-656 -347 -56 -6 -74 10 -67 56 3 21 17 63 31 91 65 141 104 189 370 465 119
123 135 143 118 143 -8 0 -118 -88 -198 -158 -17 -15 -66 -58 -110 -97 -129
-112 -284 -267 -315 -314 -36 -54 -68 -137 -83 -214 l-11 -59 -195 -165 -195
-166 -247 -1 -247 0 -43 35 c-48 38 -230 190 -269 223 -14 12 -58 48 -97 80
l-73 60 23 27 c12 15 50 62 85 104 34 42 62 85 62 97 0 13 -40 59 -107 125
-60 58 -185 181 -280 273 -94 93 -180 173 -192 179 -29 16 -73 13 -96 -7z
m196 -305 c41 -40 110 -104 152 -144 78 -73 88 -91 63 -113 -20 -16 -27 -11
-162 115 -199 186 -186 172 -174 195 18 33 41 23 121 -53z m-265 -45 c10 -9
71 -60 134 -112 63 -52 117 -97 120 -100 3 -4 37 -33 75 -65 39 -32 74 -65 78
-72 13 -21 1 -43 -23 -43 -21 0 -437 341 -447 367 -15 39 28 57 63 25z m2140
-210 c-42 -64 -86 -171 -86 -207 0 -61 72 -105 163 -100 26 1 46 0 43 -2 -9
-10 -114 -33 -149 -33 -34 0 -39 4 -49 31 -6 17 -21 34 -36 40 -22 9 -24 13
-19 55 7 62 57 158 118 227 28 31 52 57 55 57 2 0 -16 -31 -40 -68z m-1501 7
c30 -11 55 -23 55 -26 0 -15 -157 -192 -171 -192 -26 -1 -49 -25 -55 -56 -5
-30 -49 -92 -126 -178 l-43 -48 -55 39 c-30 21 -149 106 -265 187 -115 82
-232 164 -259 182 -26 18 -46 33 -44 33 3 0 36 -11 74 -24 38 -13 85 -27 106
-31 24 -5 87 -44 190 -121 134 -100 157 -114 188 -112 25 2 38 10 49 29 25 44
8 73 -79 135 -44 32 -80 61 -80 65 0 12 71 23 79 13 3 -6 40 -38 82 -72 79
-65 114 -76 143 -46 43 43 28 86 -54 148 -51 39 -52 39 -28 52 31 18 33 18 64
-11 49 -46 124 -23 124 37 0 24 35 23 105 -3z m-560 -124 c94 -69 171 -133
173 -141 5 -23 -17 -44 -37 -36 -10 4 -90 60 -179 126 -127 93 -162 124 -162
141 0 20 10 31 30 34 3 1 82 -55 175 -124z m1925 -193 c0 -5 -59 -58 -131
-118 -72 -60 -144 -121 -160 -136 -16 -16 -34 -28 -41 -28 -12 1 18 31 88 90
163 137 220 186 222 192 5 11 22 10 22 0z m-1280 -141 c141 -116 158 -131 143
-131 -9 0 -104 71 -139 105 -6 6 -41 35 -78 65 -36 29 -66 57 -66 62 0 13 14
3 140 -101z"/>
<path d="M2710 3628 c0 -13 -11 -49 -24 -81 -22 -52 -22 -57 -6 -42 29 26 62
145 40 145 -5 0 -10 -10 -10 -22z"/>
<path d="M2172 3383 c10 -66 54 -163 97 -211 l29 -32 -29 -98 c-55 -185 -47
-201 21 -40 24 57 45 104 46 106 1 2 24 -4 51 -14 29 -10 77 -17 123 -17 l75
1 19 -42 c29 -61 58 -108 63 -102 3 3 -4 37 -16 75 -16 52 -26 71 -39 71 -15
1 41 30 57 30 4 0 29 -50 56 -112 27 -62 50 -107 53 -100 2 7 -10 61 -27 121
-17 59 -31 112 -31 117 0 5 14 25 31 44 36 40 66 103 85 175 25 94 59 85 -329
85 l-344 0 9 -57z"/>
<path d="M2366 3023 c-29 -95 -29 -96 -18 -89 6 4 26 35 45 71 27 51 31 65 20
69 -26 10 -29 7 -47 -51z"/>
<path d="M2296 2742 c-2 -4 -1 -14 3 -21 7 -10 55 -13 212 -13 112 0 210 1
217 1 6 1 12 10 12 21 0 19 -7 20 -219 20 -121 0 -222 -4 -225 -8z"/>
<path d="M935 2386 c-51 -31 -77 -76 -81 -140 -5 -104 60 -177 162 -182 67 -3
104 9 138 43 35 34 35 77 0 99 -37 25 -80 9 -76 -28 7 -59 -44 -91 -81 -50
-40 44 -54 151 -27 202 32 61 126 27 106 -38 -12 -35 54 -51 90 -21 20 17 17
62 -6 92 -40 51 -158 63 -225 23z"/>
<path d="M1364 2396 c-120 -52 -134 -229 -25 -303 94 -63 234 -20 268 83 16
47 7 121 -19 160 -44 65 -149 93 -224 60z m111 -56 c60 -67 48 -231 -18 -230
-59 1 -94 74 -88 183 1 36 42 77 69 70 12 -3 28 -13 37 -23z"/>
<path d="M1737 2385 c4 -11 8 -78 8 -148 0 -111 -2 -130 -17 -141 -29 -21 -21
-26 42 -26 33 0 60 3 60 6 0 3 -9 13 -20 22 -19 15 -21 26 -18 106 l3 89 65
-109 66 -109 47 -3 48 -3 -1 113 c-2 172 -2 177 20 195 11 10 20 20 20 23 0 8
-108 5 -116 -3 -4 -4 1 -13 10 -20 15 -11 19 -30 21 -95 1 -45 0 -82 -4 -82
-3 0 -33 45 -66 100 -33 55 -64 100 -70 101 -5 0 -32 2 -58 2 -44 2 -47 0 -40
-18z"/>
<path d="M2175 2400 c-2 -3 0 -12 6 -20 5 -8 9 -72 9 -142 0 -117 -2 -129 -20
-140 -33 -21 -23 -28 40 -28 63 0 71 5 43 26 -14 10 -19 31 -22 98 -1 47 1 86
6 86 4 0 36 -47 71 -105 l63 -105 45 0 44 0 0 144 c0 138 1 146 22 160 28 20
21 26 -35 30 -61 4 -75 -6 -48 -33 18 -18 21 -33 21 -103 l0 -83 -23 35 c-13
19 -43 68 -66 108 -24 39 -46 72 -50 73 -35 4 -104 3 -106 -1z"/>
<path d="M2690 2397 c-63 -29 -99 -94 -96 -167 4 -61 17 -90 60 -127 81 -72
223 -46 272 49 20 39 21 126 1 163 -19 38 -54 71 -90 84 -37 14 -115 13 -147
-2z m120 -67 c73 -102 20 -266 -67 -205 -26 18 -54 99 -49 140 2 17 4 36 5 43
0 7 12 24 25 37 29 29 58 24 86 -15z"/>
<path d="M3044 2398 c-3 -4 4 -11 13 -17 16 -8 18 -26 20 -136 1 -113 -1 -129
-18 -146 -10 -10 -19 -21 -19 -24 0 -3 63 -5 139 -5 l139 0 7 41 c9 52 2 58
-27 25 -22 -25 -54 -33 -116 -27 -11 1 -13 27 -10 127 3 105 7 128 21 139 9 7
17 16 17 21 0 10 -160 12 -166 2z"/>
<path d="M3429 2400 c-5 -3 0 -14 11 -23 18 -15 20 -30 20 -142 0 -114 -2
-126 -20 -137 -11 -7 -20 -16 -20 -20 0 -5 62 -8 139 -8 135 0 139 1 145 23 9
33 7 67 -3 67 -5 0 -12 -8 -16 -18 -6 -22 -40 -38 -75 -36 -62 4 -58 -7 -55
130 2 121 3 128 26 145 13 10 22 19 19 20 -21 4 -164 3 -171 -1z"/>
<path d="M3790 2396 c-6 -6 0 -14 18 -21 18 -8 40 -36 69 -89 44 -81 46 -88
44 -148 -1 -27 -6 -38 -21 -43 -45 -14 -15 -25 70 -25 50 0 90 3 90 6 0 3 -10
14 -22 23 -16 14 -21 28 -21 64 1 59 75 195 117 215 37 19 27 24 -44 26 -40 1
-60 -3 -60 -11 0 -6 5 -13 12 -15 13 -5 -28 -118 -43 -118 -12 0 -49 75 -49
98 0 10 5 23 12 30 15 15 20 14 -80 15 -46 1 -87 -2 -92 -7z"/>
<path d="M2117 1944 c-1 -1 -110 -5 -242 -9 -132 -3 -242 -8 -244 -11 -2 -2
20 -4 50 -5 30 -1 92 -3 139 -4 47 -2 100 -4 118 -4 l34 -1 -64 -52 c-34 -29
-74 -63 -87 -75 -17 -15 -33 -20 -55 -17 -28 5 -53 -14 -291 -216 -143 -122
-285 -243 -315 -270 -30 -26 -68 -58 -84 -72 -24 -21 -27 -29 -21 -57 4 -17
24 -50 44 -72 56 -58 75 -54 184 39 50 42 105 88 121 102 16 14 37 32 46 40 8
8 40 35 70 60 30 25 65 54 77 65 12 11 79 67 147 125 104 88 125 110 125 133
1 33 -3 28 121 133 52 44 107 90 122 104 l28 24 385 -1 386 0 62 -51 c34 -27
73 -60 87 -72 14 -12 51 -43 82 -68 46 -35 57 -50 54 -68 -3 -12 1 -29 7 -37
10 -13 286 -245 441 -370 22 -18 80 -66 130 -108 50 -42 100 -80 111 -86 33
-17 79 10 114 67 41 68 54 52 -244 298 -11 10 -109 91 -219 182 -167 139 -203
165 -232 166 -26 0 -52 16 -123 74 -50 41 -89 75 -88 76 1 2 72 5 157 9 157 6
211 15 104 16 -32 0 -120 2 -194 5 -121 5 -1039 11 -1043 8z m-186 -135 c-24
-21 -47 -37 -50 -33 -7 7 68 74 83 74 6 -1 -9 -19 -33 -41z m1219 -51 c0 -6
-17 2 -37 18 -62 47 -72 57 -67 66 6 10 104 -69 104 -84z m-1351 -73 c17 -20
31 -37 31 -39 0 -2 -17 5 -37 15 -29 15 -40 16 -52 7 -9 -7 -54 -44 -101 -83
-47 -38 -93 -77 -104 -85 -10 -8 -28 -24 -40 -36 -11 -12 -62 -55 -113 -97
l-92 -76 21 -26 c28 -36 12 -47 -18 -12 -20 24 -25 26 -30 12 -4 -10 3 -27 20
-44 42 -44 30 -59 -13 -17 l-40 39 -51 -33 c-28 -18 -53 -30 -56 -28 -3 3 32
36 78 74 46 38 135 113 198 167 63 55 138 118 165 142 28 23 79 67 115 98 36
31 70 56 76 56 7 1 26 -15 43 -34z m1498 -10 c-11 -38 -7 -45 93 -127 25 -20
100 -82 167 -138 67 -56 126 -100 130 -98 4 2 8 14 9 28 2 58 5 70 14 70 5 0
9 -29 9 -65 -1 -38 4 -72 12 -81 17 -20 22 -11 25 43 2 25 8 51 14 57 7 7 9
-10 7 -59 l-4 -70 60 -63 c33 -35 57 -65 54 -69 -5 -4 -169 126 -197 157 -3 3
-39 32 -80 65 -75 60 -120 97 -150 125 -8 8 -59 51 -113 94 -54 43 -100 82
-102 86 -5 9 43 80 54 80 5 0 4 -16 -2 -35z"/>
<path d="M2229 1778 c-23 -9 -25 -24 -3 -32 9 -3 145 -6 304 -6 250 0 289 2
294 15 3 9 -1 18 -10 22 -23 9 -561 9 -585 1z"/>
<path d="M1721 1421 c-27 -27 -18 -65 25 -113 18 -21 34 -42 34 -47 0 -19 -23
-24 -35 -8 -14 20 -45 23 -45 4 0 -49 70 -75 103 -39 29 31 18 75 -30 119 -12
12 -23 31 -23 43 0 21 14 27 25 10 3 -5 15 -10 25 -10 23 0 20 28 -5 46 -26
19 -52 17 -74 -5z"/>
<path d="M1885 1430 c-18 -7 -20 -17 -20 -116 0 -101 1 -109 19 -109 15 0 20
8 22 33 4 49 11 49 19 3 10 -58 38 -57 52 2 l11 42 1 -42 c1 -36 4 -43 21 -43
19 0 20 7 20 114 0 106 -1 114 -20 119 -25 6 -38 -15 -46 -77 -8 -57 -21 -50
-30 14 -7 56 -20 71 -49 60z"/>
<path d="M2096 1424 c-20 -19 -18 -13 -22 -104 -3 -81 9 -113 45 -123 13 -3
31 3 47 15 25 20 26 24 22 109 -1 48 -8 93 -14 99 -19 19 -61 21 -78 4z m50
-118 c-3 -58 -8 -72 -24 -62 -13 8 -12 128 1 144 16 20 26 -14 23 -82z"/>
<path d="M2250 1430 c-12 -7 -15 -29 -14 -112 2 -125 1 -118 19 -118 10 0 15
11 15 35 0 19 4 35 9 35 5 0 15 -16 22 -35 10 -26 19 -35 36 -35 13 0 23 2 23
5 0 2 -12 34 -26 69 l-27 64 22 41 c26 52 26 53 -1 49 -13 -2 -27 -13 -33 -25
-13 -30 -20 -29 -23 4 -3 33 -4 34 -22 23z"/>
<path d="M2412 1432 c-8 -2 -12 -40 -12 -118 l0 -114 54 0 c49 0 54 2 49 20
-4 14 -14 20 -35 20 -26 0 -29 3 -26 28 2 19 9 27 23 27 31 0 31 33 0 41 -21
5 -26 12 -23 33 2 19 9 26 25 26 22 0 51 20 42 30 -7 6 -82 12 -97 7z"/>
<path d="M2555 1430 c-4 -6 -6 -45 -6 -88 0 -145 -1 -142 21 -142 17 0 20 7
20 50 0 28 4 50 10 50 14 0 27 -32 25 -63 -2 -30 21 -49 34 -29 5 9 7 174 2
219 0 6 -9 9 -20 6 -14 -4 -18 -14 -17 -46 1 -32 -3 -42 -16 -45 -15 -3 -18 4
-18 41 0 30 -5 47 -15 50 -8 4 -17 2 -20 -3z"/>
<path d="M2732 1424 c-20 -14 -22 -24 -22 -104 0 -99 11 -120 60 -120 41 0 54
30 54 124 0 70 -2 81 -23 97 -28 23 -40 24 -69 3z m48 -110 c0 -59 -3 -74 -15
-74 -12 0 -15 15 -15 73 0 41 3 77 6 80 16 16 24 -10 24 -79z"/>
<path d="M2960 1431 c-13 -5 -16 -22 -15 -81 1 -89 -3 -110 -21 -110 -11 0
-14 21 -14 95 0 88 -1 95 -20 95 -19 0 -20 -7 -20 -97 0 -54 4 -103 8 -109 23
-35 82 -34 100 3 8 18 10 199 1 206 -2 3 -11 2 -19 -2z"/>
<path d="M3052 1424 c-37 -26 -26 -71 30 -128 31 -30 32 -49 5 -54 -10 -2 -17
3 -17 12 0 9 -8 16 -20 16 -26 0 -27 -31 -2 -53 23 -21 65 -22 81 -3 28 33 22
63 -19 111 -22 25 -40 50 -40 55 0 15 24 24 28 12 2 -7 14 -12 28 -12 18 0 22
4 17 18 -14 41 -54 53 -91 26z"/>
<path d="M3208 1432 c-16 -3 -18 -17 -18 -118 l0 -114 49 0 c33 0 51 5 54 14
8 19 -1 26 -35 26 -23 0 -28 4 -28 25 0 18 7 26 24 31 29 7 29 39 0 39 -14 0
-19 7 -19 29 0 23 5 30 25 33 25 4 47 19 39 27 -7 7 -71 13 -91 8z"/>
<path d="M2184 1050 c-8 -30 -15 -35 -42 -38 l-32 -3 27 -23 c23 -20 24 -25
14 -45 -17 -30 -6 -39 19 -16 20 18 22 18 50 1 33 -19 34 -18 20 18 -8 21 -5
28 18 45 l27 20 -31 1 c-27 0 -33 5 -46 37 l-14 38 -10 -35z"/>
<path d="M2791 1048 c-11 -33 -17 -38 -44 -38 l-32 -1 27 -20 c23 -17 26 -24
17 -46 -12 -33 -4 -41 19 -20 10 10 22 17 27 17 5 0 17 -7 27 -17 23 -21 33
-11 17 18 -10 20 -8 25 15 46 15 13 21 23 14 24 -7 1 -22 2 -32 3 -12 0 -23
13 -31 36 l-12 35 -12 -37z"/>
<path d="M2493 1004 c-6 -16 -14 -37 -17 -46 -4 -14 -16 -18 -53 -18 l-48 0
38 -27 c29 -21 37 -32 33 -48 -4 -11 -9 -31 -13 -45 l-6 -25 36 28 37 28 37
-28 36 -28 -6 25 c-4 14 -9 34 -13 46 -4 16 3 26 30 45 l36 24 -48 5 c-46 5
-47 6 -58 49 l-10 44 -11 -29z"/>
</g>
</svg>
