<?xml version="1.0" standalone="no"?>
<!DOCTYPE svg PUBLIC "-//W3C//DTD SVG 20010904//EN"
 "http://www.w3.org/TR/2001/REC-SVG-20010904/DTD/svg10.dtd">
<svg version="1.0" xmlns="http://www.w3.org/2000/svg"
 width="1200.000000pt" height="1200.000000pt" viewBox="0 0 1200.000000 1200.000000"
 preserveAspectRatio="xMidYMid meet">
<metadata>
Created by potrace 1.14, written by Peter Selinger 2001-2017
</metadata>
<g transform="translate(0.000000,1200.000000) scale(0.100000,-0.100000)"
fill="#000000" stroke="none">
<path d="M5720 9934 c-19 -2 -78 -9 -130 -15 -360 -41 -770 -185 -1084 -381
-242 -152 -567 -447 -725 -661 -495 -666 -663 -1488 -467 -2277 124 -496 369
-918 743 -1281 509 -493 1169 -760 1873 -759 609 1 1190 207 1680 594 104 82
331 312 422 426 227 286 393 617 493 983 113 419 114 956 0 1373 -127 465
-341 842 -672 1184 -227 235 -460 406 -737 540 -392 190 -715 268 -1141 275
-121 2 -236 1 -255 -1z m500 -129 c860 -94 1629 -637 2010 -1419 123 -252 184
-439 230 -705 63 -358 46 -725 -51 -1097 -83 -320 -252 -654 -474 -939 -250
-320 -628 -605 -1021 -769 -340 -142 -672 -203 -1059 -193 -375 10 -667 76
-1000 228 -766 348 -1315 1057 -1465 1891 -75 417 -40 876 97 1272 193 556
536 999 1035 1334 234 158 583 301 880 363 233 48 564 62 818 34z"/>
<path d="M5715 8944 c-87 -12 -196 -39 -235 -58 -65 -31 -70 -46 -37 -109 l27
-52 0 -387 0 -387 -151 -368 c-589 -1437 -599 -1461 -599 -1514 0 -157 176
-311 465 -407 129 -43 204 -61 385 -89 163 -25 586 -25 750 0 323 51 546 131
698 252 114 91 164 192 143 288 -6 23 -177 449 -380 946 l-371 904 0 379 0
379 29 50 c16 28 27 59 24 68 -7 27 -69 58 -164 82 -72 18 -118 22 -319 24
-129 2 -248 1 -265 -1z m461 -99 c60 -8 124 -19 141 -25 32 -12 32 -12 18 -40
-13 -24 -15 -97 -15 -438 l0 -409 375 -914 c234 -570 375 -927 375 -947 0
-108 -143 -229 -368 -309 -412 -147 -953 -162 -1409 -38 -221 60 -397 164
-460 272 -21 36 -24 51 -19 85 5 33 241 616 687 1701 l69 167 0 397 c0 380 -1
397 -20 428 l-21 33 34 11 c115 38 424 52 613 26z"/>
<path d="M5630 8760 c0 -17 62 -42 139 -56 184 -33 462 -2 479 54 3 9 -63 12
-307 12 -195 0 -311 -4 -311 -10z"/>
<path d="M6530 7033 c-306 -72 -746 -81 -1062 -21 -62 12 -126 22 -142 22
l-29 1 -193 -470 c-107 -258 -194 -482 -194 -497 0 -92 243 -222 526 -282 179
-37 284 -46 514 -46 301 0 534 37 744 118 147 58 268 141 282 196 4 16 -53
166 -193 507 l-198 484 -55 -12z m-56 -173 c31 -11 66 -65 66 -101 0 -14 -10
-41 -23 -60 -39 -58 -115 -64 -162 -13 -33 36 -40 76 -19 119 26 56 80 77 138
55z m-145 -298 c91 -46 126 -154 79 -242 -35 -65 -85 -92 -165 -87 -70 3 -103
22 -141 78 -33 47 -28 148 8 198 47 64 149 89 219 53z m374 -353 c37 -21 56
-52 57 -95 0 -32 -6 -47 -31 -72 -81 -83 -220 5 -176 111 8 19 25 42 38 51 27
19 81 21 112 5z"/>
<path d="M6665 4051 c-22 -10 -53 -32 -69 -49 -27 -29 -30 -30 -52 -16 -13 9
-38 14 -60 12 -36 -3 -39 -6 -47 -43 -13 -61 0 -317 23 -442 38 -208 88 -293
172 -293 55 0 159 51 197 97 58 70 90 227 60 286 -25 48 -62 77 -98 77 l-34 0
20 23 c75 81 103 266 49 326 -16 17 -79 41 -107 41 -8 0 -32 -9 -54 -19z m65
-76 c20 -24 7 -174 -19 -227 -25 -51 -87 -125 -96 -116 -4 3 -10 50 -15 103
-10 111 0 152 51 216 32 41 58 49 79 24z m41 -396 c13 -25 -7 -124 -40 -195
-17 -35 -34 -64 -39 -64 -9 0 -57 135 -66 187 -8 46 1 61 53 93 43 27 47 28
64 12 10 -9 23 -24 28 -33z"/>
<path d="M3782 4025 c-16 -14 -37 -43 -46 -65 -27 -68 -46 -206 -46 -334 0
-117 -1 -124 -28 -167 -33 -50 -59 -75 -70 -65 -4 4 -7 66 -8 138 0 116 -2
132 -19 144 -21 15 -63 18 -83 6 -20 -13 -32 -71 -32 -160 0 -122 31 -186 97
-198 52 -10 91 12 130 73 l34 54 26 -51 c27 -53 82 -100 119 -100 26 0 67 40
101 98 l26 44 26 -48 c28 -52 80 -94 116 -94 26 0 78 54 103 106 19 42 28 43
35 5 3 -16 17 -42 31 -57 21 -25 32 -29 74 -29 58 0 79 15 120 87 l28 48 -4
-58 c-5 -74 7 -99 54 -108 49 -9 71 15 85 94 9 51 21 74 62 128 36 46 53 61
58 52 5 -7 9 -53 9 -101 0 -117 21 -157 80 -157 29 0 77 46 119 116 l38 65 21
-34 c30 -52 77 -64 138 -38 l47 21 -7 -52 c-3 -29 -6 -62 -6 -73 0 -12 -12
-28 -30 -38 -53 -32 -89 -126 -70 -183 13 -38 35 -54 75 -54 60 0 112 47 142
128 17 46 21 51 32 38 8 -9 17 -16 22 -16 14 0 10 36 -5 49 -11 9 -14 44 -15
150 -2 271 -45 361 -176 361 -71 0 -126 -39 -149 -107 -26 -75 -96 -210 -122
-234 -22 -20 -24 -21 -30 -4 -4 10 1 60 10 111 17 90 17 95 -1 131 -15 31 -24
39 -51 41 -28 3 -40 -3 -75 -40 -23 -24 -54 -59 -69 -78 l-27 -35 -1 39 c0 31
-7 45 -36 73 -48 44 -73 41 -89 -12 -6 -22 -30 -76 -53 -120 -88 -170 -107
-166 -107 21 0 113 -2 127 -19 140 -22 16 -64 18 -85 5 -7 -5 -20 -41 -27 -80
-14 -76 -55 -170 -85 -197 -27 -24 -45 -5 -69 73 -24 78 -25 105 -5 143 8 16
26 76 40 132 55 228 16 356 -85 272 -61 -52 -90 -176 -90 -386 0 -141 -1 -144
-30 -195 -17 -29 -37 -53 -46 -53 -18 0 -49 67 -65 140 -10 47 -9 58 10 99 57
126 83 340 48 394 -22 34 -56 35 -95 2z m66 -186 c-4 -41 -14 -94 -22 -119
l-14 -45 -1 75 c-1 72 13 189 26 220 12 29 20 -57 11 -131z m272 64 c0 -78
-21 -191 -41 -222 -7 -11 -9 11 -5 78 7 115 25 221 37 221 5 0 9 -35 9 -77z
m1111 -215 c17 -31 4 -162 -18 -193 -21 -27 -60 -51 -69 -42 -22 21 7 208 37
238 25 25 36 24 50 -3z m-36 -534 c-6 -44 -26 -71 -45 -59 -22 14 -5 91 28
129 17 18 17 18 20 -4 2 -13 1 -42 -3 -66z"/>
<path d="M5812 3985 c-18 -15 -39 -40 -47 -56 -20 -38 -18 -123 4 -188 l19
-54 -58 -53 c-126 -118 -128 -254 -4 -315 67 -32 180 -24 255 18 l55 31 28
-25 c23 -19 37 -23 75 -21 25 2 46 8 46 13 -1 6 -26 30 -56 54 l-56 45 18 46
c9 25 23 74 30 109 13 59 12 64 -6 77 -10 8 -38 14 -62 14 -38 0 -43 -2 -43
-23 0 -13 -5 -49 -12 -81 l-11 -57 -42 41 -42 42 32 48 c18 27 43 79 55 114
19 58 20 72 10 119 -15 76 -53 117 -111 124 -38 4 -50 1 -77 -22z m89 -62 c16
-40 -6 -127 -41 -166 l-27 -31 -13 40 c-21 60 -19 138 4 163 28 30 64 27 77
-6z m45 -498 c-17 -41 -73 -78 -106 -70 -13 4 -28 12 -32 18 -14 22 -8 78 13
120 38 75 38 75 90 16 45 -51 46 -55 35 -84z"/>
<path d="M2788 3971 c-125 -64 -180 -162 -197 -347 -9 -100 3 -178 40 -263 34
-81 97 -121 188 -121 28 0 43 9 77 44 42 44 42 44 52 21 23 -51 113 -77 103
-30 -3 11 -4 86 -2 166 l2 146 -98 5 c-54 3 -100 4 -102 2 -11 -11 22 -27 63
-31 25 -3 46 -9 46 -14 0 -4 -9 -44 -19 -88 -23 -97 -61 -154 -99 -149 -21 2
-29 13 -45 58 -35 98 -23 448 19 531 7 14 28 34 48 44 29 16 39 17 60 7 21 -9
26 -18 26 -49 0 -47 -18 -113 -30 -113 -6 0 -10 11 -10 24 0 35 -18 42 -31 12
-14 -31 -6 -53 24 -67 38 -17 73 4 97 57 27 57 21 100 -18 137 -38 36 -140 46
-194 18z"/>
<path d="M3495 3817 c-25 -19 -13 -65 20 -73 62 -16 110 26 74 65 -22 24 -66
28 -94 8z"/>
<path d="M4297 3812 c-21 -23 -21 -36 -1 -56 20 -20 63 -20 92 0 27 19 28 28
2 54 -25 25 -72 26 -93 2z"/>
<path d="M8175 3810 c-17 -18 -17 -21 -1 -45 11 -17 26 -25 44 -25 32 0 72 25
72 45 0 20 -40 45 -71 45 -14 0 -34 -9 -44 -20z"/>
<path d="M7622 3737 c-7 -8 -16 -48 -19 -89 -6 -82 -46 -168 -110 -239 -40
-44 -53 -47 -76 -21 -24 27 -21 49 12 91 33 41 61 111 61 152 0 41 -36 79 -74
79 -78 0 -136 -77 -144 -191 -8 -115 32 -185 115 -204 72 -15 144 39 192 142
13 29 27 50 31 48 4 -3 11 -21 14 -41 11 -57 26 -82 61 -98 48 -23 88 -6 122
51 l26 45 17 -32 c18 -36 71 -69 109 -70 13 0 39 11 56 24 81 62 112 334 39
344 -18 3 -22 -4 -28 -44 -3 -26 -6 -66 -6 -89 0 -48 -19 -156 -30 -168 -11
-12 -27 45 -35 121 -7 64 -27 92 -77 108 -29 9 -40 -8 -50 -77 -5 -37 -20 -82
-37 -112 l-29 -50 -7 141 c-7 128 -9 142 -30 162 -29 28 -87 37 -103 17z
m-178 -127 c-6 -34 -40 -100 -51 -100 -11 0 6 142 18 157 20 24 41 -12 33 -57z"/>
<path d="M8983 3730 c-40 -24 -58 -51 -81 -121 -22 -66 -83 -177 -111 -203
-20 -18 -21 -18 -27 -1 -4 10 1 60 10 111 17 90 17 95 -1 131 -15 31 -24 39
-51 41 -28 3 -40 -3 -75 -40 -23 -24 -54 -59 -69 -78 l-27 -35 -1 39 c0 31 -7
45 -36 73 -52 49 -70 42 -98 -37 -27 -79 -81 -182 -106 -205 -33 -30 -40 -9
-40 121 0 111 -2 126 -20 144 -29 29 -76 26 -97 -7 -25 -38 -26 -224 -1 -268
24 -46 52 -66 97 -72 37 -5 44 -2 78 33 21 22 43 48 50 59 10 17 12 14 12 -28
1 -64 14 -85 57 -93 49 -9 71 15 85 94 9 51 21 74 62 128 36 46 53 61 58 52 5
-7 9 -53 9 -101 0 -117 21 -157 80 -157 29 0 77 46 119 116 l38 65 21 -34 c30
-52 77 -64 138 -38 l47 21 -7 -52 c-3 -29 -6 -62 -6 -73 0 -12 -12 -28 -30
-38 -53 -32 -89 -126 -70 -183 13 -38 35 -54 75 -54 60 0 112 47 142 128 17
46 21 51 32 38 8 -9 17 -16 22 -16 14 0 10 36 -5 49 -11 9 -14 43 -15 144 -1
215 -24 300 -90 344 -44 30 -122 31 -168 3z m128 -42 c17 -31 4 -162 -18 -193
-21 -27 -60 -51 -69 -42 -22 21 7 208 37 238 25 25 36 24 50 -3z m-36 -534
c-6 -44 -26 -71 -45 -59 -22 14 -5 91 28 129 17 18 17 18 20 -4 2 -13 1 -42
-3 -66z"/>
<path d="M3086 3713 c-3 -3 -6 -24 -6 -45 0 -60 41 -331 52 -345 6 -7 32 -13
59 -13 56 0 54 -3 64 120 6 82 27 155 57 206 23 39 57 54 70 30 11 -19 48 -22
48 -3 0 24 -31 57 -53 57 -43 0 -87 -38 -117 -102 -28 -59 -29 -60 -35 -32
-11 50 -33 92 -57 107 -28 18 -73 29 -82 20z"/>
<path d="M6932 3707 c-16 -19 28 -358 50 -384 6 -7 30 -13 54 -13 54 0 64 16
64 97 0 102 47 239 92 267 13 8 21 6 36 -7 28 -26 55 -23 46 6 -10 35 -24 47
-54 47 -40 0 -84 -41 -117 -108 -20 -41 -29 -51 -31 -37 -7 44 -34 101 -55
116 -33 23 -73 31 -85 16z"/>
</g>
</svg>
